<?xml version="1.0" encoding="UTF-8" standalone="no"?>
<svg
   width="111"
   height="111"
   viewBox="0 0 29.368747 29.368748"
   version="1.1"
   id="svg5"
   xmlns="http://www.w3.org/2000/svg"
   xmlns:svg="http://www.w3.org/2000/svg">
  <defs
     id="defs2">
    <rect
       x="64.375"
       y="119.554"
       width="86.446999"
       height="92.699997"
       id="rect32427" />
    <rect
       x="64.375"
       y="119.554"
       width="86.446999"
       height="92.699997"
       id="rect36800" />
    <clipPath
       clipPathUnits="userSpaceOnUse"
       id="clipPath36783">
      <path
         id="path36785"
         style="fill:#a3a3a3;fill-opacity:0.423529;stroke:none;stroke-width:0.999999;stroke-opacity:1"
         d="m 80.284,122.35 a 13.495,13.495 0 0 0 -13.525,13.526 v 52.543 a 13.495,13.495 0 0 0 13.525,13.525 h 52.543 a 13.495,13.495 0 0 0 13.526,-13.525 V 135.876 A 13.495,13.495 0 0 0 132.827,122.35 h -26.271 z" />
    </clipPath>
  </defs>
  <g
     id="g36973"
     transform="translate(-10.159899,-6.6485103)"
     style="display:inline">
    <g
       id="g36798"
       transform="matrix(0.70710678,-0.37733339,0.70710678,0.37733339,-25.288943,18.859067)"
       style="display:inline">
      <text
         xml:space="preserve"
         transform="matrix(0.26458,0,0,0.26458,0,-0.195)"
         id="text36794"
         style="font-style:normal;font-weight:normal;font-size:5.33333px;line-height:1.25;font-family:sans-serif;white-space:pre;shape-inside:url(#rect36800);fill:#a8a8a8;fill-opacity:1;stroke:none"
         clip-path="url(#clipPath36783)"><tspan
           x="64.375"
           y="124.42045"
           id="tspan1">1010101001001101001001001</tspan><tspan
           x="64.375"
           y="131.08711"
           id="tspan2">0001010101001000101111010</tspan><tspan
           x="64.375"
           y="137.75377"
           id="tspan3">0101001001010001110101010</tspan><tspan
           x="64.375"
           y="144.42043"
           id="tspan4">0011101010110101001010011</tspan><tspan
           x="64.375"
           y="151.08709"
           id="tspan5">0100110101010101110110101</tspan><tspan
           x="64.375"
           y="157.75374"
           id="tspan6">0110101010101001010110100</tspan><tspan
           x="64.375"
           y="164.4204"
           id="tspan7">1011010101001011010101110</tspan><tspan
           x="64.375"
           y="171.08706"
           id="tspan8">1011101011010110101010010</tspan><tspan
           x="64.375"
           y="177.75371"
           id="tspan9">1110101010101101010110101</tspan><tspan
           x="64.375"
           y="184.42037"
           id="tspan10">0101101010110101101000101</tspan><tspan
           x="64.375"
           y="191.08703"
           id="tspan11">1010110101101010010110101</tspan><tspan
           x="64.375"
           y="197.75368"
           id="tspan12">1010101011010110110101101</tspan><tspan
           x="64.375"
           y="204.42034"
           id="tspan13">0111010110101101010100101</tspan><tspan
           x="64.375"
           y="211.087"
           id="tspan14">010</tspan></text>
      <path
         id="path36796"
         style="fill:#a3a3a3;fill-opacity:0.423529;stroke:none;stroke-width:0.264583;stroke-opacity:1"
         d="m 21.242,32.177 a 3.57,3.57 0 0 0 -3.579,3.579 v 13.902 a 3.57,3.57 0 0 0 3.579,3.578 h 13.902 a 3.57,3.57 0 0 0 3.578,-3.578 V 35.756 a 3.57,3.57 0 0 0 -3.578,-3.579 h -6.951 z" />
    </g>
    <g
       id="g4937"
       transform="matrix(0.70710678,-0.37733339,0.70710678,0.37733339,-8.8308329,22.333741)"
       style="display:inline">
      <path
         id="rect1120"
         style="fill:#0013ff;fill-opacity:1;stroke:none;stroke-width:0.999999;stroke-opacity:1"
         d="M 90,90 H 50.203 v 26.271 a 13.495,13.495 0 0 0 13.526,13.526 H 90 Z"
         transform="scale(0.26458)" />
      <path
         id="path1480"
         style="fill:#a3a3a3;fill-opacity:0.423858;stroke:none;stroke-width:0.999999;stroke-opacity:1"
         d="M 63.729,50.203 A 13.495,13.495 0 0 0 50.203,63.73 V 90 H 90 V 50.203 Z"
         transform="scale(0.26458)" />
      <path
         id="path1472"
         style="fill:#a3a3a3;fill-opacity:0.423858;stroke:none;stroke-width:0.999999;stroke-opacity:1"
         d="M 129.797,90 H 90 v 39.797 h 26.271 a 13.495,13.495 0 0 0 13.526,-13.526 z"
         transform="scale(0.26458)" />
      <path
         id="path1477"
         style="fill:#a3a3a3;fill-opacity:0.423858;stroke:none;stroke-width:0.999999;stroke-opacity:1"
         d="M 90,50.203 V 90 h 39.797 V 63.729 A 13.495,13.495 0 0 0 116.271,50.203 Z"
         transform="scale(0.26458)" />
    </g>
    <g
       id="g5019"
       transform="matrix(0.70710678,-0.37733339,0.70710678,0.37733339,-8.830814,20.331585)"
       style="display:inline">
      <path
         id="path5007"
         style="fill:#a3a3a3;fill-opacity:0.423858;stroke:none;stroke-width:0.999999;stroke-opacity:1"
         d="M 90,90 H 50.203 v 26.271 a 13.495,13.495 0 0 0 13.526,13.526 H 90 Z"
         transform="scale(0.26458)" />
      <path
         id="path5009"
         style="fill:#a3a3a3;fill-opacity:0.423858;stroke:none;stroke-width:0.999999;stroke-opacity:1"
         d="M 63.729,50.203 A 13.495,13.495 0 0 0 50.203,63.73 V 90 H 90 V 50.203 Z"
         transform="scale(0.26458)" />
      <path
         id="path5011"
         style="fill:#a3a3a3;fill-opacity:0.423858;stroke:none;stroke-width:0.999999;stroke-opacity:1"
         d="M 129.797,90 H 90 v 39.797 h 26.271 a 13.495,13.495 0 0 0 13.526,-13.526 z"
         transform="scale(0.26458)" />
      <path
         id="path5013"
         style="fill:#ff0000;fill-opacity:1;stroke:none;stroke-width:0.999999;stroke-opacity:1"
         d="M 90,50.203 V 90 h 39.797 V 63.729 A 13.495,13.495 0 0 0 116.271,50.203 Z"
         transform="scale(0.26458)" />
    </g>
    <g
       id="g4987"
       transform="matrix(0.70710678,-0.37733339,0.70710678,0.37733339,-8.8312093,18.329964)"
       style="display:inline">
      <path
         id="path4975"
         style="fill:#a3a3a3;fill-opacity:0.423858;stroke:none;stroke-width:0.999999;stroke-opacity:1"
         d="M 90,90 H 50.203 v 26.271 a 13.495,13.495 0 0 0 13.526,13.526 H 90 Z"
         transform="scale(0.26458)" />
      <path
         id="path4977"
         style="fill:#a3a3a3;fill-opacity:0.423858;stroke:none;stroke-width:0.999999;stroke-opacity:1"
         d="M 63.729,50.203 A 13.495,13.495 0 0 0 50.203,63.73 V 90 H 90 V 50.203 Z"
         transform="scale(0.26458)" />
      <path
         id="path4979"
         style="fill:#a3a3a3;fill-opacity:0.423858;stroke:none;stroke-width:0.999999;stroke-opacity:1"
         d="M 129.797,90 H 90 v 39.797 h 26.271 a 13.495,13.495 0 0 0 13.526,-13.526 z"
         transform="scale(0.26458)" />
      <path
         id="path4981"
         style="fill:#a3a3a3;fill-opacity:0.423858;stroke:none;stroke-width:0.999999;stroke-opacity:1"
         d="M 90,50.203 V 90 h 39.797 V 63.729 A 13.495,13.495 0 0 0 116.271,50.203 Z"
         transform="scale(0.26458)" />
      <path
         style="fill:#0013ff;fill-opacity:1;stroke:none;stroke-opacity:1"
         id="path4983"
         d="m 20.94,48.98 -4.52,0.328 -1.262,4.353 -1.71,-4.197 -4.53,0.145 3.463,-2.923 -1.537,-4.263 3.85,2.39 3.58,-2.78 -1.084,4.4 z"
         transform="matrix(-0.14197778,-0.52986827,0.52986827,-0.14197778,-3.902554,33.986242)" />
      <path
         style="fill:#ff0000;fill-opacity:1;stroke:none;stroke-opacity:1"
         id="path4985"
         d="m 20.94,48.98 -4.52,0.328 -1.262,4.353 -1.71,-4.197 -4.53,0.145 3.463,-2.923 -1.537,-4.263 3.85,2.39 3.58,-2.78 -1.084,4.4 z"
         transform="matrix(-0.14197778,-0.52986827,0.52986827,-0.14197778,5.5693211,43.457389)" />
    </g>
  </g>
</svg>
